<svg xmlns="http://www.w3.org/2000/svg" viewBox="17.910300000000007 160.01010131835938 471.7493984863281 255"> <svg xmlns="http://www.w3.org/2000/svg" viewBox="0 -0.000021637946701957844 316.292236328125 432.3800354003906" height="115" width="84.109375" y="230.01010131835938" x="335.5503234863281" preserveAspectRatio="xMinYMin" style="overflow: visible;"><path id="Layer_1-2" dataName="Layer 1" class="cls-1" d="M229.36,201.21v0S229.36,201.25,229.36,201.21Z" style="fill: #302c83;"></path><path id="Layer_1-2" dataName="Layer 1" class="cls-1" d="M316.25,249.75v18.46l-.22,13.3a158.26,158.26,0,0,1-27.93,82.1A158.26,158.26,0,0,0,316,281.51l.22-13.3V249.75a20.81,20.81,0,0,0-29.56-18.9,20.81,20.81,0,0,1,29.56,18.9Z" style="fill: #302c83;"></path><path id="Layer_1-2" dataName="Layer 1" class="cls-1" d="M273.14,201.16h0a1.86,1.86,0,0,1,0-.33A1.86,1.86,0,0,0,273.14,201.16Z" style="fill: #302c83;"></path><path id="Layer_1-2" dataName="Layer 1" class="cls-1" d="M261.76,291.67a22.63,22.63,0,0,1-19.59,0,22.63,22.63,0,0,0,19.59,0Z" style="fill: #302c83;"></path><path id="Layer_1-2" dataName="Layer 1" class="cls-1" d="M316.29,201.16a67,67,0,0,0-6.37-29.06,67,67,0,0,1,6.37,29.06Z" style="fill: #302c83;"></path><path id="Layer_1-2" dataName="Layer 1" class="cls-1" d="M229.36,202.26h0c0-.37-.08-.72-.1-1.09h0C229.28,201.54,229.36,201.89,229.36,202.26Z" style="fill: #302c83;"></path><path id="Layer_1-2" dataName="Layer 1" class="cls-1" d="M268.19,186.57a21.89,21.89,0,0,1,5,14h0A21.84,21.84,0,0,0,268.19,186.57Z" style="fill: #302c83;"></path><path id="Layer_1-2" dataName="Layer 1" class="cls-2" d="M60.49,210.79a10.39,10.39,0,0,1-12.87,3.15,10.39,10.39,0,0,0,12.87-3.15Z" style="fill: #36aae1;"></path><path id="Layer_1-2" dataName="Layer 1" class="cls-3" d="M41.71,195.08l.14-6.65-.14.23Z" style="fill: #0094d7;"></path><polygon id="Layer_1-2" dataName="Layer 1" class="cls-4" points="187.68 201.16 187.68 201.16 187.76 201.16 187.76 201.16 187.68 201.16" style="fill: none;"></polygon><path id="Layer_1-2" dataName="Layer 1" class="cls-4" d="M242.17,291.67a22.62,22.62,0,0,1-12.81-20.39h0A22.62,22.62,0,0,0,242.17,291.67Z" style="fill: none;"></path><path id="Layer_1-2" dataName="Layer 1" class="cls-4" d="M286.69,230.85a20.81,20.81,0,0,0-12.12,18.9h0A20.81,20.81,0,0,1,286.69,230.85Z" style="fill: none;"></path><path id="Layer_1-2" dataName="Layer 1" class="cls-4" d="M273.21,200.54a2.58,2.58,0,0,1,0,.29,2.58,2.58,0,0,0,0-.29Z" style="fill: none;"></path><polygon id="Layer_1-2" dataName="Layer 1" class="cls-4" points="229.26 201.17 229.26 201.17 229.35 201.17 229.35 201.17 229.35 201.17 229.26 201.17" style="fill: none;"></polygon><path id="Layer_1-2" dataName="Layer 1" class="cls-4" d="M251.63,136.51c25.67,0,47.85,13.73,58.29,35.59-10.44-21.86-32.62-35.6-58.29-35.6a63.6,63.6,0,0,0-57.71,36.63A63.59,63.59,0,0,1,251.63,136.51Z" style="fill: none;"></path><path id="Layer_1-2" dataName="Layer 1" class="cls-4" d="M273.21,201.16a21.54,21.54,0,1,0,43.08,0h0a21.54,21.54,0,1,1-43.08,0h0Z" style="fill: none;"></path><path id="Layer_1-2" dataName="Layer 1" class="cls-4" d="M251.25,178.58c-12.13,0-21.89,10.46-21.89,22.59v0c0-12.13,9.76-22.59,21.89-22.59a21.9,21.9,0,0,1,16.94,8A21.9,21.9,0,0,0,251.25,178.58Z" style="fill: none;"></path><path id="Layer_1-2" dataName="Layer 1" class="cls-4" d="M274.57,271.29h0a22.62,22.62,0,0,1-12.81,20.39A22.61,22.61,0,0,0,274.57,271.29Z" style="fill: none;"></path><path id="Layer_1-2" dataName="Layer 1" class="cls-2" d="M47.62,213.94a10.41,10.41,0,0,1-5.91-9.38h0A10.41,10.41,0,0,0,47.62,213.94Z" style="fill: #36aae1;"></path><path id="Layer_1-2" dataName="Layer 1" class="cls-2" d="M62.57,204.56a10.37,10.37,0,0,1-2.08,6.23,10.37,10.37,0,0,0,2.08-6.23Z" style="fill: #36aae1;"></path><path id="Layer_1-2" dataName="Layer 1" class="cls-2" d="M205.4,424.89c-.44,0-.91,0-1.42,0-111,5.71-99.72-236.75-99.72-236.75V41.69a21.06,21.06,0,0,0-.18-2.65A20.82,20.82,0,0,0,97,25.91l-.35-.32c-.07-.07-.16-.12-.23-.18a20.84,20.84,0,0,0-21.15-2.95L75,22.6c-.52.23-1,.47-1.54.74l-.21.13A20.83,20.83,0,0,0,62.57,41.69V204.56h0a10.43,10.43,0,0,1-20.86,0h0v-9.48L41.63,199c0,8.29-7.12,167.39,62.73,218.24A79.44,79.44,0,0,0,141.67,432c5.13.26,10.29.38,15.45.38A159.6,159.6,0,0,0,189.7,429h0A157.94,157.94,0,0,0,205.4,424.89Z" style="fill: #36aae1;"></path><path id="Layer_1-2" dataName="Layer 1" class="cls-5" d="M146,0a20.82,20.82,0,0,0-20.85,20.85v183.7h0a10.25,10.25,0,0,1-.42,2.89c0,.07,0,.14,0,.21l-.06.15a10.42,10.42,0,0,1-9.91,7.17c-10.68,0-10.74-11.28-10.74-11.28S93,430.57,204,424.86c.51,0,1,0,1.42,0,22.58-7.18,44.24-19.68,59.92-35l-3.18,2.49c-89.56,65.3-95.33-199.53-95.33-199.53v-172A20.84,20.84,0,0,0,146,0Z" style="fill: #86c2eb;"></path><path id="Layer_1-2" dataName="Layer 1" class="cls-3" d="M104.36,417.23C34.51,366.38,41.63,207.28,41.63,199l.08-3.91V95.64A20.85,20.85,0,0,0,0,95.51s0,.08,0,.13v152.7H0C0,357,37.44,403.46,86.86,421.72,104,428.07,122.67,431,141.67,432A79.44,79.44,0,0,1,104.36,417.23Z" style="fill: #0094d7;"></path><path id="Layer_1-2" dataName="Layer 1" class="cls-1" d="M294.75,222.71a21.54,21.54,0,0,0,21.54-21.55,67,67,0,0,0-6.37-29.06c-10.44-21.86-32.62-35.59-58.29-35.59a63.59,63.59,0,0,0-57.71,36.62c-4,8.48-5.29,16.78-6.27,31.43-.1,1.49-.56,10.42-10.41,10.42-5.45,0-10-6.93-10-10.73,0,0,5.34,253.44,94.9,188.14l3.18-2.49a160,160,0,0,0,22.78-26.29A158.26,158.26,0,0,0,316,281.51l.22-13.3V249.75a20.84,20.84,0,0,0-41.68,0v21.53h0a22.61,22.61,0,1,1-45.21,0h0v-69c0-.37-.08-.72-.1-1.09h.09v0c0-12.13,9.76-22.59,21.89-22.59a22,22,0,0,1,22,22h0a2.58,2.58,0,0,1,0,.29,1.86,1.86,0,0,0,0,.33h.07A21.54,21.54,0,0,0,294.75,222.71Z" style="fill: #d2dcfd; fill-opacity: 1;"></path></svg> <svg xmlns="http://www.w3.org/2000/svg" y="270.94" viewBox="2.450000047683716 15.680000305175781 223.4499969482422 33.119998931884766" x="87.9103" height="33.119998931884766" width="223.4499969482422" right="251.5" style="overflow: visible;"><g fill="#d2dcfd" fill-opacity="1" style=""><path d="M14.60 48.80L14.60 48.80Q11.37 48.80 8.21 47.63Q5.05 46.45 2.45 44.20L2.45 44.20L6.62 39.25Q8.43 40.72 10.61 41.65Q12.79 42.58 15.09 42.58L15.09 42.58Q17.39 42.58 18.50 41.80Q19.60 41.01 19.60 39.79L19.60 39.79Q19.60 38.66 19.01 38.00Q18.42 37.34 17.30 36.82Q16.17 36.31 14.65 35.67L14.65 35.67L10.54 33.91Q8.77 33.22 7.20 32.07Q5.63 30.92 4.68 29.23Q3.72 27.54 3.72 25.19L3.72 25.19Q3.72 22.54 5.22 20.41Q6.71 18.28 9.33 16.98Q11.96 15.68 15.44 15.68L15.44 15.68Q18.33 15.68 21.12 16.76Q23.91 17.84 26.07 19.89L26.07 19.89L22.39 24.45Q20.73 23.23 19.06 22.56Q17.39 21.90 15.04 21.90L15.04 21.90Q13.28 21.90 12.15 22.64Q11.03 23.37 11.03 24.79L11.03 24.79Q11.03 25.73 11.71 26.36Q12.40 27.00 13.57 27.49Q14.75 27.98 16.27 28.57L16.27 28.57L20.14 30.23Q22.30 31.02 23.81 32.17Q25.33 33.32 26.17 34.99Q27.00 36.65 27.00 38.91L27.00 38.91Q27.00 41.55 25.55 43.81Q24.11 46.06 21.34 47.43Q18.57 48.80 14.60 48.80ZM47.41 48.80L47.41 48.80Q43.54 48.80 41.26 47.46Q38.98 46.11 37.95 43.71Q36.93 41.31 36.93 38.12L36.93 38.12L36.93 29.55L30.85 29.55L30.85 24.21L37.27 23.91L38.20 16.46L44.13 16.46L44.13 23.91L54.42 23.91L54.42 29.55L44.13 29.55L44.13 38.07Q44.13 39.89 44.67 41.01Q45.21 42.14 46.33 42.65Q47.46 43.17 49.23 43.17L49.23 43.17Q50.65 43.17 51.82 42.92Q53.00 42.68 54.08 42.29L54.08 42.29L55.35 47.48Q53.73 47.97 51.80 48.39Q49.86 48.80 47.41 48.80ZM67.78 48.80L67.78 48.80Q65.33 48.80 63.54 47.82Q61.75 46.84 60.77 45.18Q59.79 43.51 59.79 41.45L59.79 41.45Q59.79 37.39 63.49 35.23Q67.19 33.08 75.81 32.59L75.81 32.59Q75.67 31.46 75.08 30.67Q74.49 29.89 73.39 29.47Q72.28 29.06 70.62 29.06L70.62 29.06Q69.44 29.06 68.27 29.33Q67.09 29.60 65.84 30.11Q64.59 30.63 63.22 31.31L63.22 31.31L60.67 26.61Q62.34 25.63 64.17 24.89Q66.01 24.16 68.00 23.74Q69.98 23.32 72.04 23.32L72.04 23.32Q75.47 23.32 77.92 24.52Q80.37 25.73 81.69 28.15Q83.02 30.58 83.02 34.30L83.02 34.30L83.02 48.22L77.14 48.22L76.60 45.47L76.40 45.47Q74.59 46.84 72.38 47.82Q70.18 48.80 67.78 48.80ZM70.08 43.22L70.08 43.22Q71.70 43.22 73.12 42.56Q74.54 41.90 75.81 40.91L75.81 40.91L75.81 36.90Q72.23 37.09 70.25 37.63Q68.27 38.17 67.48 39.00Q66.70 39.84 66.70 40.91L66.70 40.91Q66.70 41.65 67.11 42.19Q67.53 42.73 68.29 42.97Q69.05 43.22 70.08 43.22ZM104.21 48.80L104.21 48.80Q100.34 48.80 98.06 47.46Q95.78 46.11 94.75 43.71Q93.73 41.31 93.73 38.12L93.73 38.12L93.73 29.55L87.65 29.55L87.65 24.21L94.07 23.91L95 16.46L100.93 16.46L100.93 23.91L111.22 23.91L111.22 29.55L100.93 29.55L100.93 38.07Q100.93 39.89 101.47 41.01Q102.01 42.14 103.13 42.65Q104.26 43.17 106.03 43.17L106.03 43.17Q107.45 43.17 108.62 42.92Q109.80 42.68 110.88 42.29L110.88 42.29L112.15 47.48Q110.53 47.97 108.60 48.39Q106.66 48.80 104.21 48.80ZM128.10 48.80L128.10 48.80Q124.87 48.80 121.69 47.70Q118.50 46.60 116.20 45.08L116.20 45.08L119.28 40.57Q121.49 41.99 123.96 42.73Q126.44 43.46 129.08 43.46L129.08 43.46Q131.09 43.46 132.02 42.85Q132.96 42.24 132.96 41.41L132.96 41.41Q132.96 40.87 132.69 40.50Q132.42 40.13 131.75 39.81Q131.09 39.49 129.94 39.20Q128.79 38.91 126.98 38.51L126.98 38.51Q122.03 37.44 119.87 35.57Q117.72 33.71 117.72 30.92L117.72 30.92Q117.72 27.49 120.71 25.41Q123.69 23.32 128.89 23.32L128.89 23.32Q132.17 23.32 134.84 24.38Q137.51 25.43 139.42 26.66L139.42 26.66L136.19 30.97Q134.38 29.84 132.32 29.25Q130.26 28.66 128.25 28.66L128.25 28.66Q127.12 28.66 126.39 28.89Q125.65 29.11 125.26 29.57Q124.87 30.04 124.87 30.58L124.87 30.58Q124.87 31.56 126.14 32.02Q127.42 32.49 130.50 33.17L130.50 33.17Q134.23 34.01 136.34 35.08Q138.44 36.16 139.25 37.56Q140.06 38.95 140.06 40.96L140.06 40.96Q140.06 43.17 138.71 44.93Q137.37 46.70 134.69 47.75Q132.02 48.80 128.10 48.80ZM157.29 48.22L145.63 48.22L145.63 16.27L156.36 16.27Q159.69 16.27 162.34 16.98Q164.98 17.69 166.52 19.40Q168.07 21.12 168.07 24.21L168.07 24.21Q168.07 26.36 166.75 28.37Q165.42 30.38 162.58 31.12L162.58 31.12L162.58 31.31Q166.01 31.90 167.77 33.74Q169.54 35.57 169.54 38.81L169.54 38.81Q169.54 42.04 167.92 44.12Q166.30 46.21 163.54 47.21Q160.77 48.22 157.29 48.22L157.29 48.22ZM152.83 21.90L152.83 29.11L156.01 29.11Q158.66 29.11 159.84 28.05Q161.01 27.00 161.01 25.19L161.01 25.19Q161.01 23.42 159.81 22.66Q158.61 21.90 156.06 21.90L156.06 21.90L152.83 21.90ZM152.83 34.30L152.83 42.58L156.70 42.58Q159.64 42.58 161.06 41.50Q162.48 40.42 162.48 38.27L162.48 38.27Q162.48 36.16 161.06 35.23Q159.64 34.30 156.70 34.30L156.70 34.30L152.83 34.30ZM183.29 48.22L176.08 48.22L176.08 23.91L181.96 23.91L182.55 29.20L182.70 29.20Q184.51 26.21 187.08 24.77Q189.66 23.32 192.55 23.32L192.55 23.32Q194.17 23.32 195.17 23.57Q196.17 23.81 197.25 24.30L197.25 24.30L195.78 30.33Q194.66 29.99 193.75 29.82Q192.84 29.64 191.47 29.64L191.47 29.64Q189.22 29.64 187.04 30.97Q184.86 32.29 183.29 35.57L183.29 35.57L183.29 48.22ZM213.50 48.80L213.50 48.80Q210.31 48.80 207.47 47.31Q204.63 45.81 202.87 42.95Q201.10 40.08 201.10 36.06L201.10 36.06Q201.10 32.05 202.87 29.18Q204.63 26.31 207.47 24.82Q210.31 23.32 213.50 23.32L213.50 23.32Q216.69 23.32 219.53 24.82Q222.37 26.31 224.13 29.18Q225.90 32.05 225.90 36.06L225.90 36.06Q225.90 40.08 224.13 42.95Q222.37 45.81 219.53 47.31Q216.69 48.80 213.50 48.80ZM213.50 42.97L213.50 42.97Q215.17 42.97 216.27 42.14Q217.37 41.31 217.93 39.74Q218.50 38.17 218.50 36.06L218.50 36.06Q218.50 33.96 217.93 32.39Q217.37 30.82 216.27 29.99Q215.17 29.16 213.50 29.16L213.50 29.16Q211.83 29.16 210.73 29.99Q209.63 30.82 209.07 32.39Q208.50 33.96 208.50 36.06L208.50 36.06Q208.50 38.17 209.07 39.74Q209.63 41.31 210.73 42.14Q211.83 42.97 213.50 42.97Z" transform="translate(0, 0)"></path></g></svg></svg>